<?xml version="1.0" standalone="no"?>
<!DOCTYPE svg PUBLIC "-//W3C//DTD SVG 20010904//EN"
 "http://www.w3.org/TR/2001/REC-SVG-20010904/DTD/svg10.dtd">
<svg version="1.0" xmlns="http://www.w3.org/2000/svg"
 width="511.000000pt" height="511.000000pt" viewBox="0 0 511.000000 511.000000"
 preserveAspectRatio="xMidYMid meet">
<metadata>
Created by potrace 1.14, written by Peter Selinger 2001-2017
</metadata>
<g transform="translate(0.000000,511.000000) scale(0.100000,-0.100000)"
fill="#000000" stroke="none">
<path d="M230 3636 c-103 -25 -176 -88 -206 -179 -14 -43 -16 -119 -16 -605 0
-540 1 -559 21 -612 27 -73 72 -125 135 -158 l51 -27 567 -1 c537 -1 570 0
625 18 103 35 172 111 188 208 9 55 9 1081 0 1130 -20 111 -98 200 -199 227
-41 12 -1119 10 -1166 -1z"/>
<path d="M2008 3644 c-2 -1 -16 -5 -32 -8 -39 -7 -105 -42 -139 -74 -40 -37
-59 -77 -71 -147 -16 -88 -13 -1085 4 -1145 26 -96 67 -148 150 -191 l45 -24
580 0 580 0 67 33 c39 19 80 49 98 70 60 73 61 81 58 708 -3 560 -3 570 -25
616 -33 73 -88 123 -158 146 -57 19 -90 20 -607 19 -301 0 -549 -1 -550 -3z"/>
<path d="M3730 3636 c-85 -23 -129 -50 -172 -107 -50 -67 -51 -83 -51 -679 0
-542 1 -556 22 -611 27 -72 81 -134 139 -162 47 -22 48 -22 627 -22 l580 0 56
26 c73 34 110 68 140 127 l24 47 0 590 0 590 -28 57 c-33 67 -89 119 -149 139
-58 18 -1119 23 -1188 5z"/>
<path d="M825 1756 c-55 -24 -84 -78 -79 -148 6 -77 52 -128 121 -132 78 -6
130 40 140 123 6 55 -20 126 -56 148 -30 19 -93 24 -126 9z m114 -33 c47 -38
56 -145 18 -192 -38 -45 -119 -45 -157 1 -40 49 -37 138 7 182 31 32 99 36
132 9z"/>
<path d="M1838 1749 c-59 -30 -82 -104 -58 -191 31 -109 201 -109 234 0 11 35
-19 28 -34 -8 -31 -74 -142 -69 -171 8 -36 94 6 182 88 182 44 0 72 -15 83
-46 11 -28 30 -32 30 -5 0 24 -47 71 -74 72 -11 1 -30 3 -42 4 -11 1 -37 -6
-56 -16z"/>
<path d="M2534 1763 c-31 -6 -54 -35 -59 -71 -5 -41 27 -67 101 -82 69 -15 96
-46 71 -84 -31 -46 -126 -37 -149 14 -14 33 -39 41 -33 11 13 -66 87 -95 173
-67 31 10 54 58 43 88 -13 34 -30 45 -96 63 -71 18 -90 34 -81 68 12 51 115
52 138 2 6 -14 17 -25 24 -25 19 0 -1 52 -25 67 -22 14 -78 23 -107 16z"/>
<path d="M50 1723 c-1 -21 -2 -84 -3 -141 -2 -88 0 -102 14 -102 13 0 16 10
14 49 -1 28 1 54 4 59 3 5 36 11 74 14 82 5 102 21 101 80 -2 63 -27 78 -125
78 l-79 0 0 -37z m158 0 c25 -15 29 -50 8 -78 -10 -14 -27 -19 -77 -19 l-64
-1 0 45 c-1 25 1 51 3 58 6 17 100 14 130 -5z"/>
<path d="M399 1753 c-1 -5 -2 -68 -3 -141 -1 -112 1 -132 13 -130 11 2 15 18
16 63 l0 60 63 -1 c35 0 68 -6 74 -12 7 -7 15 -33 18 -59 3 -34 10 -49 22 -51
13 -3 15 2 9 30 -4 18 -8 36 -9 41 -1 4 -2 16 -2 26 0 11 -9 22 -19 26 -18 5
-18 7 5 30 33 33 32 77 -2 104 -22 17 -41 21 -105 21 -44 0 -80 -3 -80 -7z
m138 -19 c24 -3 34 -12 41 -34 16 -44 -10 -70 -68 -71 -89 -2 -85 -5 -88 54
l-2 54 43 1 c23 1 56 -1 74 -4z"/>
<path d="M1264 1640 c0 -106 -3 -122 -19 -134 -35 -25 -85 -2 -85 40 0 15 -6
24 -15 24 -12 0 -14 -7 -11 -27 2 -16 5 -31 5 -35 2 -15 62 -38 87 -34 57 11
64 28 64 163 0 92 -3 123 -12 123 -10 0 -13 -31 -14 -120z"/>
<path d="M1449 1748 c-1 -17 -1 -250 0 -263 1 -14 181 -9 195 5 7 7 -19 10
-80 10 l-91 0 1 55 c1 61 -5 58 94 56 44 0 62 3 62 12 0 9 -21 13 -77 12 l-78
0 0 50 1 50 82 0 c59 0 82 4 82 13 0 9 -26 12 -95 12 -69 0 -95 -3 -96 -12z"/>
<path d="M2132 1748 c3 -7 24 -11 51 -11 l47 1 -1 -57 c-3 -142 1 -201 14
-201 9 0 12 31 12 128 l0 127 48 0 c31 0 47 4 47 13 0 9 -29 12 -111 12 -80 0
-110 -3 -107 -12z"/>
<path d="M3035 1620 c0 -118 2 -140 15 -140 12 0 15 12 14 60 l-2 60 59 0 c32
0 70 5 84 12 50 23 49 119 -2 139 -13 5 -57 9 -96 9 l-72 0 0 -140z m171 95
c37 -50 7 -86 -77 -92 l-65 -5 -1 61 0 62 65 -4 c49 -3 68 -8 78 -22z"/>
<path d="M3355 1750 c-7 -11 9 -13 63 -10 l32 2 1 -114 c1 -62 1 -121 0 -130
-1 -10 4 -18 13 -18 14 0 16 19 16 130 0 99 3 130 13 129 34 -4 87 2 87 11 0
6 -43 10 -109 10 -63 0 -112 -4 -116 -10z"/>
<path d="M3680 1754 c0 -3 23 -41 51 -83 48 -70 52 -80 51 -133 -1 -42 3 -58
12 -58 8 0 14 12 14 33 0 17 0 44 1 58 1 15 26 63 56 108 44 63 52 81 38 81
-11 -1 -35 -28 -62 -70 -24 -39 -45 -69 -47 -67 -12 12 -54 80 -54 87 0 6 -4
10 -9 10 -5 0 -13 9 -16 20 -6 18 -35 29 -35 14z"/>
<path d="M4251 1621 l1 -139 62 -4 c78 -4 126 1 126 13 0 5 -36 9 -80 9 l-80
0 0 130 c0 108 -2 130 -15 130 -12 0 -15 -22 -14 -139z"/>
<path d="M4500 1750 c0 -11 16 -13 65 -10 l30 1 0 -131 c-1 -123 6 -164 22
-125 3 10 6 70 7 134 l1 116 48 0 c31 0 47 4 47 13 0 9 -29 12 -110 12 -67 0
-110 -4 -110 -10z"/>
<path d="M4849 1718 c-1 -42 -1 -139 0 -208 l1 -35 53 2 c84 4 109 10 134 35
30 30 43 100 29 158 -16 65 -57 90 -147 90 l-69 0 -1 -42z m132 12 c26 -7 41
-20 52 -42 18 -37 16 -114 -4 -146 -17 -27 -70 -45 -119 -40 l-35 3 -1 105 c0
58 2 111 4 118 5 15 54 16 103 2z"/>
</g>
</svg>
